<svg width="0" height="0" class="hidden">
  <symbol aria-hidden="true" data-prefix="fab" data-icon="apple" xmlns="http://www.w3.org/2000/svg" viewBox="0 0 384 512" id="apple">
    <path fill="currentColor" d="M318.7 268.7c-.2-36.7 16.4-64.4 50-84.8-18.8-26.9-47.2-41.7-84.7-44.6-35.5-2.8-74.3 20.7-88.5 20.7-15 0-49.4-19.7-76.4-19.7C63.3 141.2 4 184.8 4 273.5q0 39.3 14.4 81.2c12.8 36.7 59 126.7 107.2 125.2 25.2-.6 43-17.9 75.8-17.9 31.8 0 48.3 17.9 76.4 17.9 48.6-.7 90.4-82.5 102.6-119.3-65.2-30.7-61.7-90-61.7-91.9zm-56.6-164.2c27.3-32.4 24.8-61.9 24-72.5-24.1 1.4-52 16.4-67.9 34.9-17.5 19.8-27.8 44.3-25.6 71.9 26.1 2 49.9-11.4 69.5-34.3z"></path>
  </symbol>
  <symbol xmlns="http://www.w3.org/2000/svg" viewBox="0 0 490.2 490.2" id="at">
    <path fill="currentColor" d="M420.95 61.8C376.25 20.6 320.65 0 254.25 0c-69.8 0-129.3 23.4-178.4 70.3s-73.7 105.2-73.7 175c0 66.9 23.4 124.4 70.1 172.6 46.9 48.2 109.9 72.3 189.2 72.3 47.8 0 94.7-9.8 140.7-29.5 15-6.4 22.3-23.6 16.2-38.7-6.3-15.6-24.1-22.8-39.6-16.2-40 17.2-79.2 25.8-117.4 25.8-60.8 0-107.9-18.5-141.3-55.6-33.3-37-50-80.5-50-130.4 0-54.2 17.9-99.4 53.6-135.7 35.6-36.2 79.5-54.4 131.5-54.4 47.9 0 88.4 14.9 121.4 44.7s49.5 67.3 49.5 112.5c0 30.9-7.6 56.7-22.7 77.2-15.1 20.6-30.8 30.8-47.1 30.8-8.8 0-13.2-4.7-13.2-14.2 0-7.7.6-16.7 1.7-27.1l18.6-152.1h-64l-4.1 14.9c-16.3-13.3-34.2-20-53.6-20-30.8 0-57.2 12.3-79.1 36.8-22 24.5-32.9 56.1-32.9 94.7 0 37.7 9.7 68.2 29.2 91.3 19.5 23.2 42.9 34.7 70.3 34.7 24.5 0 45.4-10.3 62.8-30.8 13.1 19.7 32.4 29.5 57.9 29.5 37.5 0 69.9-16.3 97.2-49 27.3-32.6 41-72 41-118.1 0-58.4-22.3-108.3-67.1-149.5zm-147.4 230.1c-11.3 15.2-24.8 22.9-40.5 22.9-10.7 0-19.3-5.6-25.8-16.8-6.6-11.2-9.9-25.1-9.9-41.8 0-20.6 4.6-37.2 13.8-49.8s20.6-19 34.2-19c11.8 0 22.3 4.7 31.5 14.2s13.8 22.1 13.8 37.9c-.1 19.7-5.8 37.1-17.1 52.4z"></path>
  </symbol>
  <symbol aria-hidden="true" data-prefix="fab" data-icon="facebook" xmlns="http://www.w3.org/2000/svg" viewBox="0 0 512 512" id="facebook">
    <path fill="currentColor" d="M504 256C504 119 393 8 256 8S8 119 8 256c0 123.78 90.69 226.38 209.25 245V327.69h-63V256h63v-54.64c0-62.15 37-96.48 93.67-96.48 27.14 0 55.52 4.84 55.52 4.84v61h-31.28c-30.8 0-40.41 19.12-40.41 38.73V256h68.78l-11 71.69h-57.78V501C413.31 482.38 504 379.78 504 256z"></path>
  </symbol>
  <symbol aria-hidden="true" data-prefix="fab" data-icon="github" xmlns="http://www.w3.org/2000/svg" viewBox="0 0 496 512" id="github">
    <path fill="currentColor" d="M165.9 397.4c0 2-2.3 3.6-5.2 3.6-3.3.3-5.6-1.3-5.6-3.6 0-2 2.3-3.6 5.2-3.6 3-.3 5.6 1.3 5.6 3.6zm-31.1-4.5c-.7 2 1.3 4.3 4.3 4.9 2.6 1 5.6 0 6.2-2s-1.3-4.3-4.3-5.2c-2.6-.7-5.5.3-6.2 2.3zm44.2-1.7c-2.9.7-4.9 2.6-4.6 4.9.3 2 2.9 3.3 5.9 2.6 2.9-.7 4.9-2.6 4.6-4.6-.3-1.9-3-3.2-5.9-2.9zM244.8 8C106.1 8 0 113.3 0 252c0 110.9 69.8 205.8 169.5 239.2 12.8 2.3 17.3-5.6 17.3-12.1 0-6.2-.3-40.4-.3-61.4 0 0-70 15-84.7-29.8 0 0-11.4-29.1-27.8-36.6 0 0-22.9-15.7 1.6-15.4 0 0 24.9 2 38.6 25.8 21.9 38.6 58.6 27.5 72.9 20.9 2.3-16 8.8-27.1 16-33.7-55.9-6.2-112.3-14.3-112.3-110.5 0-27.5 7.6-41.3 23.6-58.9-2.6-6.5-11.1-33.3 2.6-67.9 20.9-6.5 69 27 69 27 20-5.6 41.5-8.5 62.8-8.5s42.8 2.9 62.8 8.5c0 0 48.1-33.6 69-27 13.7 34.7 5.2 61.4 2.6 67.9 16 17.7 25.8 31.5 25.8 58.9 0 96.5-58.9 104.2-114.8 110.5 9.2 7.9 17 22.9 17 46.4 0 33.7-.3 75.4-.3 83.6 0 6.5 4.6 14.4 17.3 12.1C428.2 457.8 496 362.9 496 252 496 113.3 383.5 8 244.8 8zM97.2 352.9c-1.3 1-1 3.3.7 5.2 1.6 1.6 3.9 2.3 5.2 1 1.3-1 1-3.3-.7-5.2-1.6-1.6-3.9-2.3-5.2-1zm-10.8-8.1c-.7 1.3.3 2.9 2.3 3.9 1.6 1 3.6.7 4.3-.7.7-1.3-.3-2.9-2.3-3.9-2-.6-3.6-.3-4.3.7zm32.4 35.6c-1.6 1.3-1 4.3 1.3 6.2 2.3 2.3 5.2 2.6 6.5 1 1.3-1.3.7-4.3-1.3-6.2-2.2-2.3-5.2-2.6-6.5-1zm-11.4-14.7c-1.6 1-1.6 3.6 0 5.9 1.6 2.3 4.3 3.3 5.6 2.3 1.6-1.3 1.6-3.9 0-6.2-1.4-2.3-4-3.3-5.6-2z"></path>
  </symbol>
  <symbol aria-hidden="true" data-prefix="fab" data-icon="instagram" xmlns="http://www.w3.org/2000/svg" viewBox="0 0 448 512" id="instagram">
    <path fill="currentColor" d="M224.1 141c-63.6 0-114.9 51.3-114.9 114.9s51.3 114.9 114.9 114.9S339 319.5 339 255.9 287.7 141 224.1 141zm0 189.6c-41.1 0-74.7-33.5-74.7-74.7s33.5-74.7 74.7-74.7 74.7 33.5 74.7 74.7-33.6 74.7-74.7 74.7zm146.4-194.3c0 14.9-12 26.8-26.8 26.8-14.9 0-26.8-12-26.8-26.8s12-26.8 26.8-26.8 26.8 12 26.8 26.8zm76.1 27.2c-1.7-35.9-9.9-67.7-36.2-93.9-26.2-26.2-58-34.4-93.9-36.2-37-2.1-147.9-2.1-184.9 0-35.8 1.7-67.6 9.9-93.9 36.1s-34.4 58-36.2 93.9c-2.1 37-2.1 147.9 0 184.9 1.7 35.9 9.9 67.7 36.2 93.9s58 34.4 93.9 36.2c37 2.1 147.9 2.1 184.9 0 35.9-1.7 67.7-9.9 93.9-36.2 26.2-26.2 34.4-58 36.2-93.9 2.1-37 2.1-147.8 0-184.8zM398.8 388c-7.8 19.6-22.9 34.7-42.6 42.6-29.5 11.7-99.5 9-132.1 9s-102.7 2.6-132.1-9c-19.6-7.8-34.7-22.9-42.6-42.6-11.7-29.5-9-99.5-9-132.1s-2.6-102.7 9-132.1c7.8-19.6 22.9-34.7 42.6-42.6 29.5-11.7 99.5-9 132.1-9s102.7-2.6 132.1 9c19.6 7.8 34.7 22.9 42.6 42.6 11.7 29.5 9 99.5 9 132.1s2.7 102.7-9 132.1z"></path>
  </symbol>
  <symbol aria-hidden="true" data-prefix="fab" data-icon="linkedin" xmlns="http://www.w3.org/2000/svg" viewBox="0 0 448 512" id="linkedin">
    <path fill="currentColor" d="M416 32H31.9C14.3 32 0 46.5 0 64.3v383.4C0 465.5 14.3 480 31.9 480H416c17.6 0 32-14.5 32-32.3V64.3c0-17.8-14.4-32.3-32-32.3zM135.4 416H69V202.2h66.5V416zm-33.2-243c-21.3 0-38.5-17.3-38.5-38.5S80.9 96 102.2 96c21.2 0 38.5 17.3 38.5 38.5 0 21.3-17.2 38.5-38.5 38.5zm282.1 243h-66.4V312c0-24.8-.5-56.7-34.5-56.7-34.6 0-39.9 27-39.9 54.9V416h-66.4V202.2h63.7v29.2h.9c8.9-16.8 30.6-34.5 62.9-34.5 67.2 0 79.7 44.3 79.7 101.9V416z"></path>
  </symbol>
  <symbol xmlns="http://www.w3.org/2000/svg" viewBox="0 0 300 300" id="soundcloud">
    <path fill="currentColor" d="M14.492 208.896c.619 0 1.143-.509 1.232-1.226l3.365-26.671-3.355-27.278c-.1-.717-.623-1.23-1.242-1.23-.635 0-1.176.524-1.26 1.23l-2.941 27.278 2.941 26.662c.084.716.625 1.235 1.26 1.235zM3.397 198.752c.608 0 1.101-.473 1.19-1.18l2.608-16.574-2.608-16.884c-.09-.685-.582-1.18-1.19-1.18-.635 0-1.127.495-1.217 1.19L0 180.999l2.18 16.569c.09.701.582 1.184 1.217 1.184zm24.365-50.108c-.08-.867-.715-1.5-1.503-1.5-.782 0-1.418.633-1.491 1.5l-2.811 32.355 2.811 31.174c.073.862.709 1.487 1.491 1.487.788 0 1.423-.625 1.503-1.487l3.18-31.174-3.18-32.355zm10.39 66.272c.922 0 1.668-.759 1.758-1.751l3.005-32.156-3.005-33.258c-.09-.999-.836-1.749-1.758-1.749-.935 0-1.692.751-1.756 1.754l-2.656 33.253 2.656 32.156c.064.993.821 1.751 1.756 1.751zm11.975.522c1.074 0 1.936-.86 2.025-2.011l-.01.008 2.83-32.426-2.83-30.857c-.08-1.132-.941-2.005-2.016-2.005-1.09 0-1.947.873-2.012 2.014l-2.502 30.849 2.502 32.418c.066 1.15.923 2.01 2.013 2.01zm17.005-34.421l-2.655-50.172c-.074-1.272-1.065-2.286-2.281-2.286-1.207 0-2.195 1.013-2.269 2.286l-2.35 50.172 2.35 32.418c.074 1.278 1.063 2.278 2.269 2.278 1.217 0 2.207-1 2.281-2.278v.009l2.655-32.427zm7.254 34.749c1.339 0 2.45-1.111 2.513-2.529v.021l2.482-32.233-2.482-61.656c-.063-1.418-1.174-2.529-2.513-2.529-1.37 0-2.471 1.111-2.545 2.529l-2.185 61.656 2.195 32.222c.064 1.408 1.165 2.519 2.535 2.519zm12.259-104.331c-1.508 0-2.725 1.238-2.787 2.799l-2.033 66.801 2.033 31.884c.063 1.553 1.279 2.783 2.787 2.783 1.504 0 2.73-1.22 2.783-2.788v.016l2.307-31.895-2.307-66.801c-.053-1.571-1.28-2.799-2.783-2.799zM99.01 215.766c1.656 0 2.975-1.336 3.037-3.056v.019l2.133-31.693-2.133-69.045c-.063-1.714-1.381-3.056-3.037-3.056-1.666 0-3.005 1.342-3.031 3.056l-1.916 69.045 1.916 31.693c.026 1.701 1.365 3.037 3.031 3.037zm12.467-.032c1.787 0 3.237-1.463 3.291-3.318v.029l1.963-31.404-1.963-67.289c-.054-1.854-1.504-3.311-3.291-3.311-1.8 0-3.25 1.456-3.303 3.311l-1.725 67.289 1.736 31.389c.042 1.841 1.492 3.304 3.292 3.304zm17.882-34.693l-1.777-64.836c-.043-2-1.609-3.571-3.551-3.571-1.947 0-3.514 1.571-3.555 3.584l-1.594 64.823 1.594 31.198c.041 1.984 1.607 3.556 3.555 3.556 1.941 0 3.508-1.572 3.551-3.585v.029l1.777-31.198zm7.323 34.812c2.064 0 3.773-1.717 3.805-3.828v.017l1.613-30.984-1.613-77.153c-.031-2.119-1.74-3.833-3.805-3.833-2.063 0-3.767 1.722-3.809 3.844l-1.434 77.111 1.434 31.016c.042 2.093 1.746 3.81 3.809 3.81zm12.609-123.039c-2.229 0-4.037 1.849-4.074 4.103l-1.667 84.151 1.677 30.526c.027 2.225 1.836 4.068 4.064 4.068 2.195 0 4.037-1.844 4.047-4.105v.037l1.82-30.526-1.82-84.151c-.01-2.262-1.852-4.103-4.047-4.103zm11.529 123.068c.09.008 101.623.056 102.275.056 20.385 0 36.904-16.722 36.904-37.357 0-20.624-16.52-37.349-36.904-37.349a36.315 36.315 0 00-14.275 2.907c-2.922-33.671-30.815-60.077-64.842-60.077-8.318 0-16.429 1.662-23.593 4.469-2.788 1.09-3.534 2.214-3.556 4.392v118.539c.032 2.29 1.778 4.193 3.991 4.42z"></path>
  </symbol>
  <symbol aria-hidden="true" data-prefix="fab" data-icon="spotify" xmlns="http://www.w3.org/2000/svg" viewBox="0 0 496 512" id="spotify">
    <path fill="currentColor" d="M248 8C111.1 8 0 119.1 0 256s111.1 248 248 248 248-111.1 248-248S384.9 8 248 8zm100.7 364.9c-4.2 0-6.8-1.3-10.7-3.6-62.4-37.6-135-39.2-206.7-24.5-3.9 1-9 2.6-11.9 2.6-9.7 0-15.8-7.7-15.8-15.8 0-10.3 6.1-15.2 13.6-16.8 81.9-18.1 165.6-16.5 237 26.2 6.1 3.9 9.7 7.4 9.7 16.5s-7.1 15.4-15.2 15.4zm26.9-65.6c-5.2 0-8.7-2.3-12.3-4.2-62.5-37-155.7-51.9-238.6-29.4-4.8 1.3-7.4 2.6-11.9 2.6-10.7 0-19.4-8.7-19.4-19.4s5.2-17.8 15.5-20.7c27.8-7.8 56.2-13.6 97.8-13.6 64.9 0 127.6 16.1 177 45.5 8.1 4.8 11.3 11 11.3 19.7-.1 10.8-8.5 19.5-19.4 19.5zm31-76.2c-5.2 0-8.4-1.3-12.9-3.9-71.2-42.5-198.5-52.7-280.9-29.7-3.6 1-8.1 2.6-12.9 2.6-13.2 0-23.3-10.3-23.3-23.6 0-13.6 8.4-21.3 17.4-23.9 35.2-10.3 74.6-15.2 117.5-15.2 73 0 149.5 15.2 205.4 47.8 7.8 4.5 12.9 10.7 12.9 22.6 0 13.6-11 23.3-23.2 23.3z"></path>
  </symbol>
  <symbol aria-hidden="true" data-prefix="fab" data-icon="twitter" xmlns="http://www.w3.org/2000/svg" viewBox="0 0 512 512" id="twitter">
    <path fill="currentColor" d="M459.37 151.716c.325 4.548.325 9.097.325 13.645 0 138.72-105.583 298.558-298.558 298.558-59.452 0-114.68-17.219-161.137-47.106 8.447.974 16.568 1.299 25.34 1.299 49.055 0 94.213-16.568 130.274-44.832-46.132-.975-84.792-31.188-98.112-72.772 6.498.974 12.995 1.624 19.818 1.624 9.421 0 18.843-1.3 27.614-3.573-48.081-9.747-84.143-51.98-84.143-102.985v-1.299c13.969 7.797 30.214 12.67 47.431 13.319-28.264-18.843-46.781-51.005-46.781-87.391 0-19.492 5.197-37.36 14.294-52.954 51.655 63.675 129.3 105.258 216.365 109.807-1.624-7.797-2.599-15.918-2.599-24.04 0-57.828 46.782-104.934 104.934-104.934 30.213 0 57.502 12.67 76.67 33.137 23.715-4.548 46.456-13.32 66.599-25.34-7.798 24.366-24.366 44.833-46.132 57.827 21.117-2.273 41.584-8.122 60.426-16.243-14.292 20.791-32.161 39.308-52.628 54.253z"></path>
  </symbol>
  <symbol aria-hidden="true" data-prefix="fab" data-icon="youtube" xmlns="http://www.w3.org/2000/svg" viewBox="0 0 576 512" id="youtube">
    <path fill="currentColor" d="M549.655 124.083c-6.281-23.65-24.787-42.276-48.284-48.597C458.781 64 288 64 288 64S117.22 64 74.629 75.486c-23.497 6.322-42.003 24.947-48.284 48.597-11.412 42.867-11.412 132.305-11.412 132.305s0 89.438 11.412 132.305c6.281 23.65 24.787 41.5 48.284 47.821C117.22 448 288 448 288 448s170.78 0 213.371-11.486c23.497-6.321 42.003-24.171 48.284-47.821 11.412-42.867 11.412-132.305 11.412-132.305s0-89.438-11.412-132.305zm-317.51 213.508V175.185l142.739 81.205-142.739 81.201z"></path>
  </symbol>
</svg>